<svg xmlns="http://www.w3.org/2000/svg" viewBox="0 0 1200 320" role="img" aria-labelledby="title desc">
<title id="title">Ohana</title>
<desc id="desc">Ohana logo with connected circular circuit icon and wordmark.</desc>
<defs>
  <linearGradient id="g" x1="0" y1="0" x2="1" y2="1">
    <stop offset="0" stop-color="#18C5E8"/>
    <stop offset="1" stop-color="#1479D1"/>
  </linearGradient>
</defs>
<rect width="1200" height="320" rx="32" fill="#F8FAFC"/>
<g transform="translate(40 24) scale(.53)">
  <g fill="none" stroke="url(#g)" stroke-width="24" stroke-linecap="round" stroke-linejoin="round">
    <path d="M392 142a172 172 0 1 1-66-52"/>
    <path d="M120 250c40-68 94-104 166-112"/>
    <path d="M124 306c52-56 106-82 178-82"/>
    <path d="M150 354c54-42 112-62 174-60"/>
    <path d="M242 390l62-62h78"/>
    <path d="M286 404l54-54h68"/>
  </g>
  <g fill="#F8FAFC" stroke="url(#g)" stroke-width="18">
    <circle cx="312" cy="112" r="26"/>
    <circle cx="268" cy="164" r="26"/>
    <circle cx="316" cy="214" r="26"/>
  </g>
</g>
<text x="350" y="205" fill="#0F172A" font-family="Inter, Segoe UI, Arial, sans-serif" font-size="150" font-weight="600" letter-spacing="-4">Ohana</text>
</svg>