<?xml version="1.0" encoding="UTF-8"?>
<svg xmlns="http://www.w3.org/2000/svg" width="470" height="120" viewBox="0 0 470 120">
<title>logo-dark.svg</title>
<rect width="100%" height="100%" fill="#FFFFFF"/>


<title>Ohanna wordmark</title>
<defs>
  <linearGradient id="ink" x1="0" y1="0" x2="470" y2="0" gradientUnits="userSpaceOnUse">
    <stop offset="0%" stop-color="#172554"/>
    <stop offset="100%" stop-color="#1F2937"/>
  </linearGradient>
</defs>

<!-- Symbole = O -->
<g transform="translate(6,6) scale(0.84)">

  
  

  <defs>
    <linearGradient id="gradient-blue" x1="40" y1="10" x2="67" y2="55" gradientUnits="userSpaceOnUse">
      <stop offset="0" stop-color="#148BFF"/>
      <stop offset="0.56" stop-color="#18AEEA"/>
      <stop offset="1" stop-color="#0869B8"/>
    </linearGradient>
    <linearGradient id="gradient-orange" x1="72" y1="24" x2="112" y2="62" gradientUnits="userSpaceOnUse">
      <stop offset="0" stop-color="#FFB12A"/>
      <stop offset="0.58" stop-color="#FF8F1C"/>
      <stop offset="1" stop-color="#F27300"/>
    </linearGradient>
    <linearGradient id="gradient-red" x1="66" y1="70" x2="72" y2="119" gradientUnits="userSpaceOnUse">
      <stop offset="0" stop-color="#FF5B4A"/>
      <stop offset="0.56" stop-color="#F73545"/>
      <stop offset="1" stop-color="#E31634"/>
    </linearGradient>
    <linearGradient id="gradient-green" x1="18" y1="53" x2="57" y2="75" gradientUnits="userSpaceOnUse">
      <stop offset="0" stop-color="#20C76A"/>
      <stop offset="0.55" stop-color="#57CD4F"/>
      <stop offset="1" stop-color="#159447"/>
    </linearGradient>
  </defs>

  <g id="symbol" transform="rotate(-15 64 64)">
    <path id="petal-blue"
          d="M63.5 57
             C59.8 53.2 52.2 44.8 48.1 36.4
             C43.2 26.5 44.8 16.7 52.7 10.7
             C61.1 4.4 72.2 6.1 78.4 14.6
             C84.2 22.6 82.4 33.4 76.8 42.2
             C72.8 48.5 67.8 53.8 63.5 57Z"
          fill="url(#gradient-blue)"/>

    <path id="petal-orange"
          d="M69.5 61.6
             C74.3 56.8 81.3 49.4 88.7 45.3
             C97.1 40.7 106.4 41.6 112.1 48.4
             C118.2 55.7 117.3 66.2 110.2 72.8
             C103.6 79 93.8 78.5 85.1 74.3
             C78.7 71.2 73.5 66.6 69.5 61.6Z"
          fill="url(#gradient-orange)"/>

    <path id="petal-red"
          d="M59.8 70.5
             C54.7 75.3 49.2 81.6 46.1 88.4
             C41.7 98.1 43.1 107.9 50.7 114.4
             C58.8 121.3 70.1 120.7 77.3 112.8
             C83.9 105.5 84.4 94.6 80.1 85.4
             C77.2 79.3 72.6 73.7 68.4 70.4
             L64.1 85.9
             L59.8 70.5Z"
          fill="url(#gradient-red)"/>

    <path id="petal-green"
          d="M57.6 63.2
             C52.8 67.2 45.8 72.5 38.3 75
             C29.9 77.8 21.5 75.4 17.2 68.6
             C12.5 61.2 14.6 51.8 21.7 46.7
             C28.1 42 36.9 42.6 44.8 46.1
             C50.5 48.6 55.3 54.2 57.6 63.2Z"
          fill="url(#gradient-green)"/>
  </g>

</g>

<!-- Hanna -->
<g fill="#FFFFFF" stroke="none">
<path d="M112 24h10v24c4-5 10-8 17-8 13 0 21 8 21 22v34h-10V64c0-9-5-14-13-14-9 0-15 7-15 17v29h-10z"/>
<path d="M191 40c14 0 23 9 23 22v34h-9l-1-7c-4 6-10 9-18 9-12 0-20-7-20-18 0-12 10-18 24-18h13v-1c0-8-5-12-13-12-6 0-11 2-15 6l-6-6c5-6 13-9 22-9zm12 31h-11c-9 0-15 3-15 9 0 5 4 9 11 9 9 0 15-6 15-16z"/>
<path d="M231 42h9l1 7c4-6 10-9 17-9 13 0 21 8 21 22v34h-10V64c0-9-5-14-13-14-9 0-15 7-15 17v29h-10z"/>
<path d="M290 42h9l1 7c4-6 10-9 17-9 13 0 21 8 21 22v34h-10V64c0-9-5-14-13-14-9 0-15 7-15 17v29h-10z"/>
<path d="M391 40c14 0 23 9 23 22v34h-9l-1-7c-4 6-10 9-18 9-12 0-20-7-20-18 0-12 10-18 24-18h13v-1c0-8-5-12-13-12-6 0-11 2-15 6l-6-6c5-6 13-9 22-9zm12 31h-11c-9 0-15 3-15 9 0 5 4 9 11 9 9 0 15-6 15-16z"/>
</g>

</svg>