<svg xmlns="http://www.w3.org/2000/svg" width="24" height="24" viewBox="0 0 24 24" fill="none" stroke="currentColor" stroke-width="2" stroke-linecap="round" stroke-linejoin="round">
<circle cx="12" cy="12" r="3"/><path d="M19.4 15a1.7 1.7 0 0 0 .3 1.9l.1.1-2 3.4-.2-.1a1.7 1.7 0 0 0-1.9.3l-.4.2a1.7 1.7 0 0 0-1 1.5V22h-4v-.2a1.7 1.7 0 0 0-1-1.5l-.4-.2a1.7 1.7 0 0 0-1.9-.3l-.2.1-2-3.4.1-.1A1.7 1.7 0 0 0 4.6 15l-.2-.4A1.7 1.7 0 0 0 3 13.5v-3A1.7 1.7 0 0 0 4.4 9l.2-.4A1.7 1.7 0 0 0 4.3 7l-.1-.1 2-3.4.2.1a1.7 1.7 0 0 0 1.9-.3l.4-.2a1.7 1.7 0 0 0 1-1.5V2h4v.2a1.7 1.7 0 0 0 1 1.5l.4.2a1.7 1.7 0 0 0 1.9.3l.2-.1 2 3.4-.1.1A1.7 1.7 0 0 0 19.4 9l.2.4A1.7 1.7 0 0 0 21 10.5v3A1.7 1.7 0 0 0 19.6 15z"/>
</svg>